<mxfile host="app.diagrams.net" modified="2023-07-27T19:11:18.379Z" agent="Mozilla/5.0 (Windows NT 10.0; Win64; x64) AppleWebKit/537.36 (KHTML, like Gecko) Chrome/115.0.0.0 Safari/537.36 Edg/115.0.1901.183" etag="vlYc5EF8Cv99h3zfbXHv" version="21.6.5" type="github">
  <diagram id="C5RBs43oDa-KdzZeNtuy" name="Page-1">
    <mxGraphModel dx="934" dy="565" grid="1" gridSize="10" guides="1" tooltips="1" connect="1" arrows="1" fold="1" page="1" pageScale="1" pageWidth="1169" pageHeight="827" math="0" shadow="0">
      <root>
        <mxCell id="WIyWlLk6GJQsqaUBKTNV-0" />
        <mxCell id="WIyWlLk6GJQsqaUBKTNV-1" parent="WIyWlLk6GJQsqaUBKTNV-0" />
        <mxCell id="oxnR6QVea987-UyblR4y-0" style="edgeStyle=orthogonalEdgeStyle;rounded=0;orthogonalLoop=1;jettySize=auto;html=1;exitX=0.5;exitY=0.5;exitDx=0;exitDy=20;exitPerimeter=0;entryX=0.507;entryY=0.145;entryDx=0;entryDy=0;entryPerimeter=0;" edge="1" parent="WIyWlLk6GJQsqaUBKTNV-1" source="oxnR6QVea987-UyblR4y-1" target="oxnR6QVea987-UyblR4y-20">
          <mxGeometry relative="1" as="geometry" />
        </mxCell>
        <mxCell id="oxnR6QVea987-UyblR4y-1" value="Start" style="html=1;dashed=0;whiteSpace=wrap;shape=mxgraph.dfd.start;fontSize=11;" vertex="1" parent="WIyWlLk6GJQsqaUBKTNV-1">
          <mxGeometry x="80" y="40" width="100" height="40" as="geometry" />
        </mxCell>
        <mxCell id="oxnR6QVea987-UyblR4y-3" value="Upload file" style="whiteSpace=wrap;html=1;strokeWidth=1;fontSize=11;" vertex="1" parent="WIyWlLk6GJQsqaUBKTNV-1">
          <mxGeometry x="230" y="160" width="100" height="50" as="geometry" />
        </mxCell>
        <mxCell id="oxnR6QVea987-UyblR4y-7" style="edgeStyle=orthogonalEdgeStyle;rounded=0;orthogonalLoop=1;jettySize=auto;html=1;exitX=0.5;exitY=1;exitDx=0;exitDy=0;entryX=0.5;entryY=0;entryDx=0;entryDy=0;" edge="1" parent="WIyWlLk6GJQsqaUBKTNV-1" target="oxnR6QVea987-UyblR4y-13">
          <mxGeometry relative="1" as="geometry">
            <mxPoint x="429.9999999999998" y="140" as="sourcePoint" />
          </mxGeometry>
        </mxCell>
        <mxCell id="oxnR6QVea987-UyblR4y-9" style="edgeStyle=orthogonalEdgeStyle;rounded=0;orthogonalLoop=1;jettySize=auto;html=1;exitX=0.5;exitY=1;exitDx=0;exitDy=0;entryX=0.5;entryY=0;entryDx=0;entryDy=0;" edge="1" parent="WIyWlLk6GJQsqaUBKTNV-1" source="oxnR6QVea987-UyblR4y-11" target="oxnR6QVea987-UyblR4y-45">
          <mxGeometry relative="1" as="geometry" />
        </mxCell>
        <mxCell id="oxnR6QVea987-UyblR4y-10" style="edgeStyle=orthogonalEdgeStyle;rounded=0;orthogonalLoop=1;jettySize=auto;html=1;exitX=0;exitY=0.5;exitDx=0;exitDy=0;entryX=0;entryY=0.5;entryDx=0;entryDy=0;" edge="1" parent="WIyWlLk6GJQsqaUBKTNV-1" source="oxnR6QVea987-UyblR4y-11" target="oxnR6QVea987-UyblR4y-69">
          <mxGeometry relative="1" as="geometry">
            <mxPoint x="360" y="470" as="targetPoint" />
            <Array as="points">
              <mxPoint x="360" y="265" />
              <mxPoint x="360" y="465" />
            </Array>
          </mxGeometry>
        </mxCell>
        <mxCell id="oxnR6QVea987-UyblR4y-11" value="&amp;nbsp;Is there an &lt;br&gt;error?" style="rhombus;whiteSpace=wrap;html=1;strokeWidth=1;fontSize=11;spacingTop=5;" vertex="1" parent="WIyWlLk6GJQsqaUBKTNV-1">
          <mxGeometry x="380" y="230" width="100" height="70" as="geometry" />
        </mxCell>
        <mxCell id="oxnR6QVea987-UyblR4y-12" style="edgeStyle=orthogonalEdgeStyle;rounded=0;orthogonalLoop=1;jettySize=auto;html=1;exitX=0.5;exitY=1;exitDx=0;exitDy=0;entryX=0.5;entryY=0;entryDx=0;entryDy=0;" edge="1" parent="WIyWlLk6GJQsqaUBKTNV-1" source="oxnR6QVea987-UyblR4y-13" target="oxnR6QVea987-UyblR4y-11">
          <mxGeometry relative="1" as="geometry" />
        </mxCell>
        <mxCell id="oxnR6QVea987-UyblR4y-13" value="Validate WBS Details" style="whiteSpace=wrap;html=1;strokeWidth=1;fontSize=11;" vertex="1" parent="WIyWlLk6GJQsqaUBKTNV-1">
          <mxGeometry x="380" y="160" width="100" height="50" as="geometry" />
        </mxCell>
        <mxCell id="oxnR6QVea987-UyblR4y-14" style="edgeStyle=orthogonalEdgeStyle;rounded=0;orthogonalLoop=1;jettySize=auto;html=1;exitX=0.5;exitY=1;exitDx=0;exitDy=0;entryX=0.5;entryY=0;entryDx=0;entryDy=0;" edge="1" parent="WIyWlLk6GJQsqaUBKTNV-1" source="oxnR6QVea987-UyblR4y-16" target="oxnR6QVea987-UyblR4y-38">
          <mxGeometry relative="1" as="geometry" />
        </mxCell>
        <mxCell id="oxnR6QVea987-UyblR4y-15" style="edgeStyle=orthogonalEdgeStyle;rounded=0;orthogonalLoop=1;jettySize=auto;html=1;exitX=0;exitY=0.5;exitDx=0;exitDy=0;entryX=0;entryY=0.5;entryDx=0;entryDy=0;entryPerimeter=0;" edge="1" parent="WIyWlLk6GJQsqaUBKTNV-1" source="oxnR6QVea987-UyblR4y-16" target="oxnR6QVea987-UyblR4y-67">
          <mxGeometry relative="1" as="geometry" />
        </mxCell>
        <mxCell id="oxnR6QVea987-UyblR4y-16" value="Does it have&amp;nbsp;&lt;br&gt;a data?" style="rhombus;whiteSpace=wrap;html=1;strokeWidth=1;fontSize=11;spacingTop=5;" vertex="1" parent="WIyWlLk6GJQsqaUBKTNV-1">
          <mxGeometry x="230" y="300" width="100" height="70" as="geometry" />
        </mxCell>
        <mxCell id="oxnR6QVea987-UyblR4y-92" style="edgeStyle=orthogonalEdgeStyle;rounded=0;orthogonalLoop=1;jettySize=auto;html=1;exitX=0.5;exitY=1;exitDx=0;exitDy=0;entryX=0.5;entryY=0;entryDx=0;entryDy=0;" edge="1" parent="WIyWlLk6GJQsqaUBKTNV-1" source="oxnR6QVea987-UyblR4y-18" target="oxnR6QVea987-UyblR4y-55">
          <mxGeometry relative="1" as="geometry" />
        </mxCell>
        <mxCell id="oxnR6QVea987-UyblR4y-18" value="Create WBS Budget" style="whiteSpace=wrap;html=1;strokeWidth=1;fontSize=11;" vertex="1" parent="WIyWlLk6GJQsqaUBKTNV-1">
          <mxGeometry x="530" y="160" width="100" height="50" as="geometry" />
        </mxCell>
        <mxCell id="oxnR6QVea987-UyblR4y-19" style="edgeStyle=orthogonalEdgeStyle;rounded=0;orthogonalLoop=1;jettySize=auto;html=1;exitX=0.5;exitY=1;exitDx=0;exitDy=0;entryX=0.5;entryY=0;entryDx=0;entryDy=0;" edge="1" parent="WIyWlLk6GJQsqaUBKTNV-1" source="oxnR6QVea987-UyblR4y-20" target="oxnR6QVea987-UyblR4y-22">
          <mxGeometry relative="1" as="geometry" />
        </mxCell>
        <mxCell id="oxnR6QVea987-UyblR4y-20" value="&lt;br style=&quot;font-size: 11px;&quot;&gt;&lt;br style=&quot;font-size: 11px;&quot;&gt;Select file from local directory,&lt;br&gt;Select Execution Option (Test Run, Actual Run)" style="shape=manualInput;whiteSpace=wrap;html=1;fontSize=11;" vertex="1" parent="WIyWlLk6GJQsqaUBKTNV-1">
          <mxGeometry x="80" y="90" width="100" height="110" as="geometry" />
        </mxCell>
        <mxCell id="oxnR6QVea987-UyblR4y-21" style="edgeStyle=orthogonalEdgeStyle;rounded=0;orthogonalLoop=1;jettySize=auto;html=1;exitX=0.5;exitY=1;exitDx=0;exitDy=0;entryX=0.5;entryY=0;entryDx=0;entryDy=0;" edge="1" parent="WIyWlLk6GJQsqaUBKTNV-1" source="oxnR6QVea987-UyblR4y-22" target="oxnR6QVea987-UyblR4y-25">
          <mxGeometry relative="1" as="geometry" />
        </mxCell>
        <mxCell id="oxnR6QVea987-UyblR4y-22" value="&amp;nbsp; &amp;nbsp; a = File Path&lt;br&gt;b = Option" style="shape=parallelogram;perimeter=parallelogramPerimeter;whiteSpace=wrap;html=1;fixedSize=1;fontSize=11;" vertex="1" parent="WIyWlLk6GJQsqaUBKTNV-1">
          <mxGeometry x="80" y="220" width="100" height="50" as="geometry" />
        </mxCell>
        <mxCell id="oxnR6QVea987-UyblR4y-23" style="edgeStyle=orthogonalEdgeStyle;rounded=0;orthogonalLoop=1;jettySize=auto;html=1;exitX=0.5;exitY=1;exitDx=0;exitDy=0;entryX=0.5;entryY=0;entryDx=0;entryDy=0;" edge="1" parent="WIyWlLk6GJQsqaUBKTNV-1" source="oxnR6QVea987-UyblR4y-25" target="oxnR6QVea987-UyblR4y-27">
          <mxGeometry relative="1" as="geometry" />
        </mxCell>
        <mxCell id="oxnR6QVea987-UyblR4y-24" style="edgeStyle=orthogonalEdgeStyle;rounded=0;orthogonalLoop=1;jettySize=auto;html=1;exitX=0;exitY=0.5;exitDx=0;exitDy=0;entryX=0;entryY=0.5;entryDx=0;entryDy=0;" edge="1" parent="WIyWlLk6GJQsqaUBKTNV-1" source="oxnR6QVea987-UyblR4y-25" target="oxnR6QVea987-UyblR4y-20">
          <mxGeometry relative="1" as="geometry" />
        </mxCell>
        <mxCell id="oxnR6QVea987-UyblR4y-25" value="a &amp;lt;&amp;gt; space?&lt;br&gt;" style="rhombus;whiteSpace=wrap;html=1;strokeWidth=1;fontSize=11;spacingTop=5;" vertex="1" parent="WIyWlLk6GJQsqaUBKTNV-1">
          <mxGeometry x="80" y="290" width="100" height="70" as="geometry" />
        </mxCell>
        <mxCell id="oxnR6QVea987-UyblR4y-26" style="edgeStyle=orthogonalEdgeStyle;rounded=0;orthogonalLoop=1;jettySize=auto;html=1;exitX=0.5;exitY=1;exitDx=0;exitDy=0;entryX=0.5;entryY=0;entryDx=0;entryDy=0;" edge="1" parent="WIyWlLk6GJQsqaUBKTNV-1" source="oxnR6QVea987-UyblR4y-27" target="oxnR6QVea987-UyblR4y-28">
          <mxGeometry relative="1" as="geometry" />
        </mxCell>
        <mxCell id="oxnR6QVea987-UyblR4y-27" value="Proceed with Data Selection" style="whiteSpace=wrap;html=1;strokeWidth=1;fontSize=11;" vertex="1" parent="WIyWlLk6GJQsqaUBKTNV-1">
          <mxGeometry x="80" y="380" width="100" height="50" as="geometry" />
        </mxCell>
        <mxCell id="oxnR6QVea987-UyblR4y-28" value="A" style="ellipse;whiteSpace=wrap;html=1;aspect=fixed;" vertex="1" parent="WIyWlLk6GJQsqaUBKTNV-1">
          <mxGeometry x="115" y="450" width="30" height="30" as="geometry" />
        </mxCell>
        <mxCell id="oxnR6QVea987-UyblR4y-29" style="edgeStyle=orthogonalEdgeStyle;rounded=0;orthogonalLoop=1;jettySize=auto;html=1;exitX=0.5;exitY=1;exitDx=0;exitDy=0;entryX=0.5;entryY=0;entryDx=0;entryDy=0;" edge="1" parent="WIyWlLk6GJQsqaUBKTNV-1" source="oxnR6QVea987-UyblR4y-30" target="oxnR6QVea987-UyblR4y-32">
          <mxGeometry relative="1" as="geometry" />
        </mxCell>
        <mxCell id="oxnR6QVea987-UyblR4y-30" value="A" style="ellipse;whiteSpace=wrap;html=1;aspect=fixed;" vertex="1" parent="WIyWlLk6GJQsqaUBKTNV-1">
          <mxGeometry x="265" y="45" width="30" height="30" as="geometry" />
        </mxCell>
        <mxCell id="oxnR6QVea987-UyblR4y-31" style="edgeStyle=orthogonalEdgeStyle;rounded=0;orthogonalLoop=1;jettySize=auto;html=1;exitX=0.5;exitY=1;exitDx=0;exitDy=0;entryX=0.5;entryY=0;entryDx=0;entryDy=0;" edge="1" parent="WIyWlLk6GJQsqaUBKTNV-1" source="oxnR6QVea987-UyblR4y-32" target="oxnR6QVea987-UyblR4y-3">
          <mxGeometry relative="1" as="geometry" />
        </mxCell>
        <mxCell id="oxnR6QVea987-UyblR4y-32" value="Data Selection" style="shape=process;whiteSpace=wrap;html=1;backgroundOutline=1;fontSize=11;" vertex="1" parent="WIyWlLk6GJQsqaUBKTNV-1">
          <mxGeometry x="230" y="90" width="100" height="50" as="geometry" />
        </mxCell>
        <mxCell id="oxnR6QVea987-UyblR4y-33" value="" style="edgeStyle=orthogonalEdgeStyle;rounded=0;orthogonalLoop=1;jettySize=auto;html=1;" edge="1" parent="WIyWlLk6GJQsqaUBKTNV-1" target="oxnR6QVea987-UyblR4y-36">
          <mxGeometry relative="1" as="geometry">
            <mxPoint x="280.0000000000002" y="210" as="sourcePoint" />
          </mxGeometry>
        </mxCell>
        <mxCell id="oxnR6QVea987-UyblR4y-35" value="" style="edgeStyle=orthogonalEdgeStyle;rounded=0;orthogonalLoop=1;jettySize=auto;html=1;" edge="1" parent="WIyWlLk6GJQsqaUBKTNV-1" source="oxnR6QVea987-UyblR4y-36" target="oxnR6QVea987-UyblR4y-16">
          <mxGeometry relative="1" as="geometry" />
        </mxCell>
        <mxCell id="oxnR6QVea987-UyblR4y-36" value="WBS Budget&lt;br&gt;Sheet" style="shape=document;whiteSpace=wrap;html=1;boundedLbl=1;fontSize=11;" vertex="1" parent="WIyWlLk6GJQsqaUBKTNV-1">
          <mxGeometry x="230" y="230" width="100" height="50" as="geometry" />
        </mxCell>
        <mxCell id="oxnR6QVea987-UyblR4y-37" style="edgeStyle=orthogonalEdgeStyle;rounded=0;orthogonalLoop=1;jettySize=auto;html=1;exitX=0.5;exitY=1;exitDx=0;exitDy=0;entryX=0.5;entryY=0;entryDx=0;entryDy=0;" edge="1" parent="WIyWlLk6GJQsqaUBKTNV-1" source="oxnR6QVea987-UyblR4y-38" target="oxnR6QVea987-UyblR4y-39">
          <mxGeometry relative="1" as="geometry" />
        </mxCell>
        <mxCell id="oxnR6QVea987-UyblR4y-38" value="Proceed with Data Validation" style="whiteSpace=wrap;html=1;strokeWidth=1;fontSize=11;" vertex="1" parent="WIyWlLk6GJQsqaUBKTNV-1">
          <mxGeometry x="230" y="390" width="100" height="50" as="geometry" />
        </mxCell>
        <mxCell id="oxnR6QVea987-UyblR4y-39" value="B" style="ellipse;whiteSpace=wrap;html=1;aspect=fixed;" vertex="1" parent="WIyWlLk6GJQsqaUBKTNV-1">
          <mxGeometry x="265" y="460" width="30" height="30" as="geometry" />
        </mxCell>
        <mxCell id="oxnR6QVea987-UyblR4y-40" style="edgeStyle=orthogonalEdgeStyle;rounded=0;orthogonalLoop=1;jettySize=auto;html=1;exitX=0.5;exitY=1;exitDx=0;exitDy=0;entryX=0.5;entryY=0;entryDx=0;entryDy=0;" edge="1" parent="WIyWlLk6GJQsqaUBKTNV-1" source="oxnR6QVea987-UyblR4y-41" target="oxnR6QVea987-UyblR4y-43">
          <mxGeometry relative="1" as="geometry" />
        </mxCell>
        <mxCell id="oxnR6QVea987-UyblR4y-41" value="B" style="ellipse;whiteSpace=wrap;html=1;aspect=fixed;" vertex="1" parent="WIyWlLk6GJQsqaUBKTNV-1">
          <mxGeometry x="415" y="45" width="30" height="30" as="geometry" />
        </mxCell>
        <mxCell id="oxnR6QVea987-UyblR4y-43" value="Data Validation" style="shape=process;whiteSpace=wrap;html=1;backgroundOutline=1;fontSize=11;" vertex="1" parent="WIyWlLk6GJQsqaUBKTNV-1">
          <mxGeometry x="380" y="90" width="100" height="50" as="geometry" />
        </mxCell>
        <mxCell id="oxnR6QVea987-UyblR4y-44" style="edgeStyle=orthogonalEdgeStyle;rounded=0;orthogonalLoop=1;jettySize=auto;html=1;exitX=0.5;exitY=1;exitDx=0;exitDy=0;entryX=0.5;entryY=0;entryDx=0;entryDy=0;" edge="1" parent="WIyWlLk6GJQsqaUBKTNV-1" source="oxnR6QVea987-UyblR4y-45" target="oxnR6QVea987-UyblR4y-46">
          <mxGeometry relative="1" as="geometry" />
        </mxCell>
        <mxCell id="oxnR6QVea987-UyblR4y-45" value="Proceed with Data Creation" style="whiteSpace=wrap;html=1;strokeWidth=1;fontSize=11;" vertex="1" parent="WIyWlLk6GJQsqaUBKTNV-1">
          <mxGeometry x="380" y="320" width="100" height="50" as="geometry" />
        </mxCell>
        <mxCell id="oxnR6QVea987-UyblR4y-46" value="C" style="ellipse;whiteSpace=wrap;html=1;aspect=fixed;" vertex="1" parent="WIyWlLk6GJQsqaUBKTNV-1">
          <mxGeometry x="415" y="390" width="30" height="30" as="geometry" />
        </mxCell>
        <mxCell id="oxnR6QVea987-UyblR4y-47" style="edgeStyle=orthogonalEdgeStyle;rounded=0;orthogonalLoop=1;jettySize=auto;html=1;exitX=0.5;exitY=1;exitDx=0;exitDy=0;entryX=0.5;entryY=0;entryDx=0;entryDy=0;" edge="1" parent="WIyWlLk6GJQsqaUBKTNV-1" source="oxnR6QVea987-UyblR4y-48" target="oxnR6QVea987-UyblR4y-50">
          <mxGeometry relative="1" as="geometry" />
        </mxCell>
        <mxCell id="oxnR6QVea987-UyblR4y-48" value="C" style="ellipse;whiteSpace=wrap;html=1;aspect=fixed;" vertex="1" parent="WIyWlLk6GJQsqaUBKTNV-1">
          <mxGeometry x="565" y="45" width="30" height="30" as="geometry" />
        </mxCell>
        <mxCell id="oxnR6QVea987-UyblR4y-49" style="edgeStyle=orthogonalEdgeStyle;rounded=0;orthogonalLoop=1;jettySize=auto;html=1;exitX=0.5;exitY=1;exitDx=0;exitDy=0;entryX=0.5;entryY=0;entryDx=0;entryDy=0;" edge="1" parent="WIyWlLk6GJQsqaUBKTNV-1" source="oxnR6QVea987-UyblR4y-50" target="oxnR6QVea987-UyblR4y-18">
          <mxGeometry relative="1" as="geometry" />
        </mxCell>
        <mxCell id="oxnR6QVea987-UyblR4y-50" value="Process Data" style="shape=process;whiteSpace=wrap;html=1;backgroundOutline=1;fontSize=11;" vertex="1" parent="WIyWlLk6GJQsqaUBKTNV-1">
          <mxGeometry x="530" y="90" width="100" height="50" as="geometry" />
        </mxCell>
        <mxCell id="oxnR6QVea987-UyblR4y-97" style="edgeStyle=orthogonalEdgeStyle;rounded=0;orthogonalLoop=1;jettySize=auto;html=1;exitX=0.5;exitY=1;exitDx=0;exitDy=0;entryX=0.5;entryY=0;entryDx=0;entryDy=0;" edge="1" parent="WIyWlLk6GJQsqaUBKTNV-1" source="oxnR6QVea987-UyblR4y-55" target="oxnR6QVea987-UyblR4y-57">
          <mxGeometry relative="1" as="geometry" />
        </mxCell>
        <mxCell id="oxnR6QVea987-UyblR4y-99" style="edgeStyle=orthogonalEdgeStyle;rounded=0;orthogonalLoop=1;jettySize=auto;html=1;exitX=0;exitY=0.5;exitDx=0;exitDy=0;entryX=0;entryY=0.5;entryDx=0;entryDy=0;" edge="1" parent="WIyWlLk6GJQsqaUBKTNV-1" source="oxnR6QVea987-UyblR4y-55" target="oxnR6QVea987-UyblR4y-82">
          <mxGeometry relative="1" as="geometry">
            <Array as="points">
              <mxPoint x="510" y="265" />
              <mxPoint x="510" y="485" />
            </Array>
          </mxGeometry>
        </mxCell>
        <mxCell id="oxnR6QVea987-UyblR4y-55" value="Does b =&lt;br&gt;test run?" style="rhombus;whiteSpace=wrap;html=1;strokeWidth=1;fontSize=11;spacingTop=5;" vertex="1" parent="WIyWlLk6GJQsqaUBKTNV-1">
          <mxGeometry x="530" y="230" width="100" height="70" as="geometry" />
        </mxCell>
        <mxCell id="oxnR6QVea987-UyblR4y-104" style="edgeStyle=orthogonalEdgeStyle;rounded=0;orthogonalLoop=1;jettySize=auto;html=1;exitX=0.5;exitY=1;exitDx=0;exitDy=0;entryX=0.5;entryY=0;entryDx=0;entryDy=0;" edge="1" parent="WIyWlLk6GJQsqaUBKTNV-1" source="oxnR6QVea987-UyblR4y-57" target="oxnR6QVea987-UyblR4y-66">
          <mxGeometry relative="1" as="geometry" />
        </mxCell>
        <mxCell id="oxnR6QVea987-UyblR4y-57" value="Commit Data" style="whiteSpace=wrap;html=1;strokeWidth=1;fontSize=11;" vertex="1" parent="WIyWlLk6GJQsqaUBKTNV-1">
          <mxGeometry x="530" y="320" width="100" height="50" as="geometry" />
        </mxCell>
        <mxCell id="oxnR6QVea987-UyblR4y-58" style="edgeStyle=orthogonalEdgeStyle;rounded=0;orthogonalLoop=1;jettySize=auto;html=1;exitX=0.5;exitY=1;exitDx=0;exitDy=0;entryX=0.5;entryY=0;entryDx=0;entryDy=0;" edge="1" parent="WIyWlLk6GJQsqaUBKTNV-1" source="oxnR6QVea987-UyblR4y-59" target="oxnR6QVea987-UyblR4y-61">
          <mxGeometry relative="1" as="geometry" />
        </mxCell>
        <mxCell id="oxnR6QVea987-UyblR4y-59" value="D" style="ellipse;whiteSpace=wrap;html=1;aspect=fixed;" vertex="1" parent="WIyWlLk6GJQsqaUBKTNV-1">
          <mxGeometry x="715" y="45" width="30" height="30" as="geometry" />
        </mxCell>
        <mxCell id="oxnR6QVea987-UyblR4y-60" style="edgeStyle=orthogonalEdgeStyle;rounded=0;orthogonalLoop=1;jettySize=auto;html=1;exitX=0.5;exitY=1;exitDx=0;exitDy=0;entryX=0;entryY=0;entryDx=50;entryDy=0;entryPerimeter=0;" edge="1" parent="WIyWlLk6GJQsqaUBKTNV-1" source="oxnR6QVea987-UyblR4y-61" target="oxnR6QVea987-UyblR4y-64">
          <mxGeometry relative="1" as="geometry" />
        </mxCell>
        <mxCell id="oxnR6QVea987-UyblR4y-61" value="Build ALV" style="shape=process;whiteSpace=wrap;html=1;backgroundOutline=1;fontSize=11;" vertex="1" parent="WIyWlLk6GJQsqaUBKTNV-1">
          <mxGeometry x="680" y="90" width="100" height="50" as="geometry" />
        </mxCell>
        <mxCell id="oxnR6QVea987-UyblR4y-62" value="End" style="html=1;dashed=0;whiteSpace=wrap;shape=mxgraph.dfd.start;fontSize=11;" vertex="1" parent="WIyWlLk6GJQsqaUBKTNV-1">
          <mxGeometry x="680" y="230" width="100" height="40" as="geometry" />
        </mxCell>
        <mxCell id="oxnR6QVea987-UyblR4y-63" style="edgeStyle=orthogonalEdgeStyle;rounded=0;orthogonalLoop=1;jettySize=auto;html=1;exitX=0;exitY=0;exitDx=50;exitDy=50;exitPerimeter=0;entryX=0.5;entryY=0.5;entryDx=0;entryDy=-20;entryPerimeter=0;" edge="1" parent="WIyWlLk6GJQsqaUBKTNV-1" source="oxnR6QVea987-UyblR4y-64" target="oxnR6QVea987-UyblR4y-62">
          <mxGeometry relative="1" as="geometry" />
        </mxCell>
        <mxCell id="oxnR6QVea987-UyblR4y-64" value="Display Output" style="shape=display;whiteSpace=wrap;html=1;fontSize=11;" vertex="1" parent="WIyWlLk6GJQsqaUBKTNV-1">
          <mxGeometry x="680" y="160" width="100" height="50" as="geometry" />
        </mxCell>
        <mxCell id="oxnR6QVea987-UyblR4y-102" style="edgeStyle=orthogonalEdgeStyle;rounded=0;orthogonalLoop=1;jettySize=auto;html=1;exitX=1;exitY=0.5;exitDx=0;exitDy=0;entryX=0;entryY=0.5;entryDx=0;entryDy=0;" edge="1" parent="WIyWlLk6GJQsqaUBKTNV-1" source="oxnR6QVea987-UyblR4y-66" target="oxnR6QVea987-UyblR4y-87">
          <mxGeometry relative="1" as="geometry" />
        </mxCell>
        <mxCell id="oxnR6QVea987-UyblR4y-66" value="WBS Budget &lt;br&gt;was created" style="shape=parallelogram;perimeter=parallelogramPerimeter;whiteSpace=wrap;html=1;fixedSize=1;fontSize=11;spacingLeft=3;" vertex="1" parent="WIyWlLk6GJQsqaUBKTNV-1">
          <mxGeometry x="530" y="388" width="100" height="50" as="geometry" />
        </mxCell>
        <mxCell id="oxnR6QVea987-UyblR4y-67" value="End" style="html=1;dashed=0;whiteSpace=wrap;shape=mxgraph.dfd.start;fontSize=11;" vertex="1" parent="WIyWlLk6GJQsqaUBKTNV-1">
          <mxGeometry x="230" y="510" width="100" height="40" as="geometry" />
        </mxCell>
        <mxCell id="oxnR6QVea987-UyblR4y-68" style="edgeStyle=orthogonalEdgeStyle;rounded=0;orthogonalLoop=1;jettySize=auto;html=1;exitX=0.5;exitY=1;exitDx=0;exitDy=0;entryX=0.5;entryY=0;entryDx=0;entryDy=0;" edge="1" parent="WIyWlLk6GJQsqaUBKTNV-1" source="oxnR6QVea987-UyblR4y-69" target="oxnR6QVea987-UyblR4y-74">
          <mxGeometry relative="1" as="geometry" />
        </mxCell>
        <mxCell id="oxnR6QVea987-UyblR4y-69" value="Return error&lt;br&gt;data" style="shape=parallelogram;perimeter=parallelogramPerimeter;whiteSpace=wrap;html=1;fixedSize=1;fontSize=11;" vertex="1" parent="WIyWlLk6GJQsqaUBKTNV-1">
          <mxGeometry x="380" y="440" width="100" height="50" as="geometry" />
        </mxCell>
        <mxCell id="oxnR6QVea987-UyblR4y-70" value="N" style="text;strokeColor=none;align=center;fillColor=none;html=1;verticalAlign=middle;whiteSpace=wrap;rounded=0;fontSize=11;" vertex="1" parent="WIyWlLk6GJQsqaUBKTNV-1">
          <mxGeometry x="190" y="310" width="60" height="30" as="geometry" />
        </mxCell>
        <mxCell id="oxnR6QVea987-UyblR4y-71" value="Y" style="text;strokeColor=none;align=center;fillColor=none;html=1;verticalAlign=middle;whiteSpace=wrap;rounded=0;fontSize=11;" vertex="1" parent="WIyWlLk6GJQsqaUBKTNV-1">
          <mxGeometry x="237" y="364" width="60" height="30" as="geometry" />
        </mxCell>
        <mxCell id="oxnR6QVea987-UyblR4y-72" value="Y" style="text;strokeColor=none;align=center;fillColor=none;html=1;verticalAlign=middle;whiteSpace=wrap;rounded=0;fontSize=11;" vertex="1" parent="WIyWlLk6GJQsqaUBKTNV-1">
          <mxGeometry x="80" y="350" width="60" height="30" as="geometry" />
        </mxCell>
        <mxCell id="oxnR6QVea987-UyblR4y-73" value="N" style="text;strokeColor=none;align=center;fillColor=none;html=1;verticalAlign=middle;whiteSpace=wrap;rounded=0;fontSize=11;" vertex="1" parent="WIyWlLk6GJQsqaUBKTNV-1">
          <mxGeometry x="40" y="300" width="60" height="30" as="geometry" />
        </mxCell>
        <mxCell id="oxnR6QVea987-UyblR4y-74" value="D" style="ellipse;whiteSpace=wrap;html=1;aspect=fixed;" vertex="1" parent="WIyWlLk6GJQsqaUBKTNV-1">
          <mxGeometry x="415" y="510" width="30" height="30" as="geometry" />
        </mxCell>
        <mxCell id="oxnR6QVea987-UyblR4y-75" value="N" style="text;strokeColor=none;align=center;fillColor=none;html=1;verticalAlign=middle;whiteSpace=wrap;rounded=0;fontSize=11;" vertex="1" parent="WIyWlLk6GJQsqaUBKTNV-1">
          <mxGeometry x="385" y="290" width="60" height="30" as="geometry" />
        </mxCell>
        <mxCell id="oxnR6QVea987-UyblR4y-76" value="Y" style="text;strokeColor=none;align=center;fillColor=none;html=1;verticalAlign=middle;whiteSpace=wrap;rounded=0;fontSize=11;" vertex="1" parent="WIyWlLk6GJQsqaUBKTNV-1">
          <mxGeometry x="340" y="240" width="60" height="30" as="geometry" />
        </mxCell>
        <mxCell id="oxnR6QVea987-UyblR4y-101" style="edgeStyle=orthogonalEdgeStyle;rounded=0;orthogonalLoop=1;jettySize=auto;html=1;exitX=1;exitY=0.5;exitDx=0;exitDy=0;entryX=0;entryY=0.5;entryDx=0;entryDy=0;" edge="1" parent="WIyWlLk6GJQsqaUBKTNV-1" source="oxnR6QVea987-UyblR4y-82" target="oxnR6QVea987-UyblR4y-88">
          <mxGeometry relative="1" as="geometry" />
        </mxCell>
        <mxCell id="oxnR6QVea987-UyblR4y-82" value="WBS Budget &lt;br&gt;could be &lt;br&gt;created" style="shape=parallelogram;perimeter=parallelogramPerimeter;whiteSpace=wrap;html=1;fixedSize=1;fontSize=11;spacingTop=1;spacingLeft=8;" vertex="1" parent="WIyWlLk6GJQsqaUBKTNV-1">
          <mxGeometry x="530" y="460" width="100" height="50" as="geometry" />
        </mxCell>
        <mxCell id="oxnR6QVea987-UyblR4y-85" value="Y" style="text;strokeColor=none;align=center;fillColor=none;html=1;verticalAlign=middle;whiteSpace=wrap;rounded=0;fontSize=11;" vertex="1" parent="WIyWlLk6GJQsqaUBKTNV-1">
          <mxGeometry x="490" y="240" width="60" height="30" as="geometry" />
        </mxCell>
        <mxCell id="oxnR6QVea987-UyblR4y-87" value="D" style="ellipse;whiteSpace=wrap;html=1;aspect=fixed;" vertex="1" parent="WIyWlLk6GJQsqaUBKTNV-1">
          <mxGeometry x="660" y="398" width="30" height="30" as="geometry" />
        </mxCell>
        <mxCell id="oxnR6QVea987-UyblR4y-88" value="D" style="ellipse;whiteSpace=wrap;html=1;aspect=fixed;" vertex="1" parent="WIyWlLk6GJQsqaUBKTNV-1">
          <mxGeometry x="660" y="470" width="30" height="30" as="geometry" />
        </mxCell>
        <mxCell id="oxnR6QVea987-UyblR4y-96" value="N" style="text;strokeColor=none;align=center;fillColor=none;html=1;verticalAlign=middle;whiteSpace=wrap;rounded=0;fontSize=11;" vertex="1" parent="WIyWlLk6GJQsqaUBKTNV-1">
          <mxGeometry x="535" y="290" width="60" height="30" as="geometry" />
        </mxCell>
      </root>
    </mxGraphModel>
  </diagram>
</mxfile>
